<svg width="100%" height="100%" viewBox="0 0 58 20" fill="none" xmlns="http://www.w3.org/2000/svg">
  <path d="M15.1672 20.1345H0.0322266V0.0310059H15.1672V20.1345Z" fill="#282828"/>
  <path
    d="M14.6131 0.635986L11.0901 8.45422L14.4408 11.3415L10.5912 11.5933L10.5732 15.3011L8.24334 12.9711L0.474609 19.7131L4.41813 11.9984L0.824349 12.171L4.99416 8.56799L0.636623 0.522217L8.07104 6.19583L14.6131 0.635986Z"
    fill="white"/>
  <mask id="mask0_18962_9567" style="mask-type:luminance" maskUnits="userSpaceOnUse" x="-1" y="0" width="59"
        height="21">
    <path d="M-0.000976562 20.1035H57.999V0H-0.000976562V20.1035Z" fill="white"/>
  </mask>
  <path
    d="M27.0281 7.1353H24.1081C24.171 6.9973 24.2469 6.78384 24.2469 6.62022C24.2469 6.30584 23.9061 6.25599 23.6657 6.25599C23.325 6.25599 22.7939 6.38122 22.7939 6.80815C22.7939 7.68876 26.3581 8.12845 26.3581 9.69792C26.3581 11.7966 23.4767 11.9985 21.9209 11.9985C20.999 11.9985 18.6602 11.9858 18.6602 10.654C18.6602 10.3395 18.7617 10.0379 18.862 9.74907H21.7949C21.719 9.92415 21.6432 10.1504 21.6432 10.3395C21.6432 10.7038 22.0354 10.7537 22.3259 10.7537C22.6924 10.7537 23.2105 10.6028 23.2105 10.1632C23.2105 9.24553 19.7595 8.88122 19.7595 7.29892C19.7595 5.13761 22.4404 5.02515 24.0322 5.02515C24.9425 5.02515 27.2055 5.07499 27.2055 6.36845C27.2055 6.63307 27.1168 6.8963 27.0281 7.1353Z"
    fill="black"/>
  <path
    d="M32.7918 6.48206H31.8442L30.9466 9.46006C30.8837 9.66075 30.8078 9.86145 30.8078 10.0634C30.8078 10.4021 31.0983 10.4276 31.3761 10.4276C31.6037 10.4276 31.8184 10.4021 32.0588 10.3893L31.6551 11.7837C31.1113 11.8719 30.6561 11.9345 30.0993 11.9345C29.1646 11.9345 27.457 11.8093 27.457 10.5401C27.457 10.227 27.5457 10.0008 27.6344 9.71191L28.6207 6.48206H27.8119L28.2028 5.17583H29.0758L29.5181 3.70475L32.7918 3.27783L32.235 5.17583H33.184L32.7918 6.48206Z"
    fill="black"/>
  <path
    d="M38.6065 6.58193C38.6065 6.83377 38.429 7.28493 38.3403 7.5367H36.8617L37.1022 6.75831C37.2281 6.33016 37.583 6.25477 37.9868 6.25477C38.2144 6.25477 38.6065 6.26754 38.6065 6.58193ZM41.8544 6.54362C41.8544 5.14916 39.3522 5.02393 38.3532 5.02393C36.7614 5.02393 34.4727 5.23739 33.7784 6.93346C33.5752 7.41146 33.4119 7.93931 33.2473 8.44162C33.0956 8.91831 32.7793 9.99962 32.7793 10.4764C32.7793 11.8593 35.2815 11.9973 36.2805 11.9973C37.835 11.9973 40.1996 11.7583 40.8566 10.0878C40.9454 9.86162 40.9955 9.60977 41.0714 9.37077H37.7978C37.7219 9.64816 37.6589 9.94846 37.5444 10.2131C37.3426 10.6911 37.1536 10.7537 36.647 10.7537C36.4322 10.7537 36.0285 10.7537 36.0285 10.4393C36.0285 10.3639 36.0401 10.2885 36.0658 10.2131L36.4952 8.78031H41.2488L41.7914 6.93346C41.83 6.80816 41.8544 6.67016 41.8544 6.54362Z"
    fill="black"/>
  <path
    d="M48.5919 7.19825H47.9348C46.9988 7.19825 46.2916 7.53694 46.0139 8.4674L45.002 11.8595H41.7412L43.738 5.16217H46.8355L46.4806 6.34317C46.6709 6.1054 46.8471 5.85363 47.0617 5.64017C47.6185 5.08679 48.39 5.02417 49.1473 5.02417L48.5919 7.19825Z"
    fill="black"/>
  <path
    d="M57.7566 6.45694L56.152 11.8596H52.89L54.2555 7.27363C54.2799 7.18548 54.3056 7.09725 54.3056 6.99755C54.3056 6.6704 53.952 6.63332 53.7 6.63332C53.2448 6.63332 52.9028 6.82124 52.7639 7.27363L51.3985 11.8596H48.1377L50.1345 5.16224H53.2821L53.0674 5.90355C53.9147 5.26317 54.7993 5.02417 55.8485 5.02417C56.5686 5.02417 57.8068 5.18778 57.8068 6.12978C57.8068 6.24348 57.7824 6.35594 57.7566 6.45694Z"
    fill="black"/>
</svg>
